HIERARCHY
ROOT Hips
{
  OFFSET 0 0 0
  CHANNELS 6 Xposition Yposition Zposition Zrotation Yrotation Xrotation
  JOINT LeftThigh
  {
    OFFSET 8.509551 0 -5.988202
    CHANNELS 3 Zrotation Yrotation Xrotation
    JOINT LeftLeg
    {
      OFFSET 0 0 -42.862921
      CHANNELS 3 Zrotation Yrotation Xrotation
      JOINT LeftFoot
      {
        OFFSET 0 0 -39.825843
        CHANNELS 3 Zrotation Yrotation Xrotation
        End Site
        {
          OFFSET 0 -13.487303 -5.068483
        }
      }
    }
  }
  JOINT RightThigh
  {
    OFFSET -8.509551 0 -5.988202
    CHANNELS 3 Zrotation Yrotation Xrotation
    JOINT RightLeg
    {
      OFFSET 0 0 -42.862921
      CHANNELS 3 Zrotation Yrotation Xrotation
      JOINT RightFoot
      {
        OFFSET 0 0 -39.825843
        CHANNELS 3 Zrotation Yrotation Xrotation
        End Site
        {
          OFFSET 0 -13.487303 -5.068483
        }
      }
    }
  }
  JOINT SpineLow
  {
    OFFSET 0 0 4.775281
    CHANNELS 3 Zrotation Yrotation Xrotation
    JOINT SpineMid
    {
      OFFSET 0 0 13.052753
      CHANNELS 3 Zrotation Yrotation Xrotation
      JOINT Chest
      {
        OFFSET 0 0 13.052753
        CHANNELS 3 Zrotation Yrotation Xrotation
        JOINT LeftShoulder
        {
          OFFSET 7.640449 1.432584 9.550562
          CHANNELS 3 Zrotation Yrotation Xrotation
          JOINT LeftArm
          {
            OFFSET 9.264045 0 4.297753
            CHANNELS 3 Zrotation Yrotation Xrotation
            JOINT LeftForearm
            {
              OFFSET 0 0 26.078764
              CHANNELS 3 Zrotation Yrotation Xrotation
              JOINT LeftHand
              {
                OFFSET 0 0 25.497135
                CHANNELS 3 Zrotation Yrotation Xrotation
              }
            }
          }
        }
        JOINT RightShoulder
        {
          OFFSET -7.640449 1.432584 9.550562
          CHANNELS 3 Zrotation Yrotation Xrotation
          JOINT RightArm
          {
            OFFSET -9.264045 0 4.297753
            CHANNELS 3 Zrotation Yrotation Xrotation
            JOINT RightForearm
            {
              OFFSET 0 0 -26.078764
              CHANNELS 3 Zrotation Yrotation Xrotation
              JOINT RightHand
              {
                OFFSET 0 0 -25.497135
                CHANNELS 3 Zrotation Yrotation Xrotation
              }
            }
          }
        }
        JOINT Neck
        {
          OFFSET 0 0 15.280899
          CHANNELS 3 Zrotation Yrotation Xrotation
          JOINT Head
          {
            OFFSET 0 0 11.460674
            CHANNELS 3 Zrotation Yrotation Xrotation
            End Site
            {
              OFFSET 0 0 7.325843
            }
          }
        }
      }
    }
  }
}
MOTION
Frames: 7
Frame Time: 0.01
239.382543190239  50.126774  59.2609511922822  -173.5867  -62.443982  83.904104  22.176805  -26.298908  -24.841948  24.415318  9.501399  66.646756  -13.55516  8.90215  -0.835102  -35.517563  18.579478  -42.675852  -5.265047  13.275246  45.697449  -2.126569  -1.520736  17.563915  3.145795  -0.133185  -0.294002  8.600253  -0.325139  -0.819371  8.600253  -0.325139  -0.819371  -2.699298  8.945233  13.427032  89.613058  54.106603  148.75067  -46.812062  -24.646308  114.211554  87.967172  -9.940072  14.769383  17.577383  -3.529283  10.335926  116.315155  81.746255  39.355519  -51.134245  4.083503  -127.800406  45.268227  13.752065  26.000554  -4.015863  2.978358  3.080793  -3.026334  2.21371  2.32978  
239.497947560817  49.936604  57.247635594137  -175.165252  -57.646545  85.107316  22.615513  -27.311716  -22.729019  24.035893  9.168378  66.078355  -15.673985  8.868098  -1.181617  -35.882185  15.541459  -44.418918  -1.700377  12.489039  46.190403  -0.843784  -1.755534  17.14823  3.069965  -0.118251  -0.289638  8.392768  -0.285899  -0.805229  8.392769  -0.285899  -0.805229  -1.184908  8.830015  14.162414  93.266578  52.279459  147.233953  -48.296556  -22.519788  117.118986  88.255464  -8.601975  14.280277  16.410447  -3.22575  10.850166  106.658941  78.601166  30.77929  -50.257214  4.388615  -127.580432  43.586535  11.847634  22.868803  -4.604706  3.455774  3.099233  -3.470129  2.568739  2.349943  
239.68065141323  49.6749  54.9517286507339  -176.430362  -53.115534  85.955771  22.519643  -27.891003  -20.451719  22.551415  9.209725  65.271357  -17.464039  9.117119  -1.781546  -35.428414  14.532604  -45.54656  -0.111669  10.524872  46.853197  -0.268647  -2.152905  16.460657  2.974326  -0.092937  -0.283911  8.131013  -0.218711  -0.786112  8.131012  -0.218711  -0.786112  0.209045  8.656415  14.654968  97.209179  50.211024  145.658616  -48.912304  -20.033197  119.490503  88.566388  -7.501407  13.508983  14.900751  -2.87472  11.397856  103.224518  75.177083  28.520233  -49.262638  4.662936  -127.361977  42.701091  9.657377  19.230789  -5.319614  3.91745  2.975521  -4.007364  2.912544  2.26512  
240.142114671324  49.35144  52.5993742894297  -177.407131  -48.761324  86.532545  22.079659  -28.146677  -18.205691  20.254365  9.849308  64.302754  -18.761411  9.406864  -2.52502  -33.687251  14.295153  -46.352268  1.007238  8.402847  47.491481  -1.114681  -2.77562  16.00218  2.824549  -0.087696  -0.271126  7.721516  -0.207695  -0.750169  7.721517  -0.207695  -0.750168  1.770432  8.580792  14.832442  101.288236  47.808004  144.093783  -48.737727  -17.418821  121.204916  88.904637  -6.593153  12.712605  13.617618  -2.50459  11.894974  102.214472  71.628377  29.018874  -48.131848  5.044301  -126.97286  42.41649  7.95119  14.372957  -5.950838  4.403211  2.650973  -4.480158  3.277053  2.030429  
241.011830220264  49.075222  50.395033366915  -178.093664  -44.776352  86.778685  21.277734  -28.154974  -16.074215  17.239703  11.174274  63.107336  -19.065351  9.686417  -3.103315  -31.476271  14.324345  -46.797165  1.716119  6.18926  47.94341  -2.574365  -3.202271  15.801478  2.606696  -0.091521  -0.225733  7.125952  -0.225517  -0.626054  7.125951  -0.225517  -0.626054  3.427944  8.431242  14.546788  105.443005  45.023747  142.57491  -47.804467  -14.75214  122.410908  89.233755  -5.50321  12.21034  12.855454  -2.344207  12.041908  101.71876  68.007887  30.774553  -46.86871  5.604589  -126.276693  43.386443  7.178204  8.463378  -6.541511  4.770623  2.081394  -4.919639  3.556236  1.611532  
242.210947754941  48.903114  48.5556614166881  -178.653189  -41.035769  86.918168  20.453327  -27.849875  -14.142507  13.747439  13.079002  61.673925  -18.460927  9.81672  -3.41899  -28.432086  14.570484  -46.893827  1.418645  4.280252  48.272309  -4.181553  -3.14051  15.642695  2.381196  -0.068371  -0.198622  6.509285  -0.167132  -0.549038  6.509285  -0.167132  -0.549038  4.936943  8.02756  13.991345  109.717435  41.868835  141.051554  -46.169504  -12.014818  123.216021  89.342153  -4.028323  12.344255  12.785057  -2.762998  12.001164  100.838954  64.422385  33.3211  -45.630522  6.514531  -125.254392  45.364329  7.193063  2.260282  -7.195121  4.898107  1.473033  -5.404914  3.656876  1.162087  
243.331235503285  48.861561  46.8911920437163  -178.417355  -39.4249  86.063632  17.586531  -27.916203  -11.945506  9.992765  15.336167  60.079436  -17.114868  9.833403  -3.637803  -26.947786  14.884135  -46.113215  0.267693  2.580319  48.554473  -5.686726  -2.803555  15.471764  1.911652  -0.096438  -0.119959  5.225798  -0.253936  -0.335282  5.225798  -0.253936  -0.335282  5.957587  7.377637  13.530827  114.140913  38.76206  139.667743  -43.845734  -9.144531  123.686757  89.042387  -1.999482  13.38637  13.12104  -3.653542  11.857283  99.421624  61.008443  36.402951  -44.450457  7.997867  -123.872906  48.198119  7.94809  -3.027906  -8.095971  4.828792  0.896956  -6.075493  3.610479  0.73658  
